<svg width="130" height="130" viewBox="0 0 130 130" fill="none" xmlns="http://www.w3.org/2000/svg">
<path d="M27.1053 59L61.8421 5L96.5789 59H27.1053ZM96.5789 125C88.6842 125 81.9737 122.375 76.4474 117.125C70.9211 111.875 68.1579 105.5 68.1579 98C68.1579 90.5 70.9211 84.125 76.4474 78.875C81.9737 73.625 88.6842 71 96.5789 71C104.474 71 111.184 73.625 116.711 78.875C122.237 84.125 125 90.5 125 98C125 105.5 122.237 111.875 116.711 117.125C111.184 122.375 104.474 125 96.5789 125ZM5 122V74H55.5263V122H5ZM96.5789 113C101 113 104.737 111.55 107.789 108.65C110.842 105.75 112.368 102.2 112.368 98C112.368 93.8 110.842 90.25 107.789 87.35C104.737 84.45 101 83 96.5789 83C92.1579 83 88.4211 84.45 85.3684 87.35C82.3158 90.25 80.7895 93.8 80.7895 98C80.7895 102.2 82.3158 105.75 85.3684 108.65C88.4211 111.55 92.1579 113 96.5789 113ZM17.6316 110H42.8947V86H17.6316V110ZM49.5263 47H74.1579L61.8421 28.1L49.5263 47Z" fill="#FF7A7A"/>
</svg>
