<svg width="120" height="120" viewBox="0 0 120 120" fill="none" xmlns="http://www.w3.org/2000/svg">
<path d="M105 11.25L97.5 7.5L90 11.25L82.5 7.5L75 11.25L67.5 7.5L60 11.25L52.5 7.5L45 11.25L33.75 7.5V67.5V67.5117H86.25V99.375C86.25 106.624 94.0008 112.5 101.25 112.5H104.062C111.312 112.5 116.25 106.624 116.25 99.375V7.5L105 11.25ZM63.8672 56.25L63.75 48.75H101.133L101.25 56.25H63.8672ZM48.8672 37.5L48.75 30H101.133L101.25 37.5H48.8672Z" fill="#FC7F7F"/>
<path d="M78.75 99.375V75H3.75V82.5C3.75 94.3477 5.10469 99.2859 7.13906 103.038C10.5914 109.406 16.8422 112.5 26.25 112.5H86.25C86.25 112.5 78.75 107.812 78.75 99.375Z" fill="#FC7F7F"/>
</svg>
