<svg width="120" height="120" viewBox="0 0 120 120" fill="none" xmlns="http://www.w3.org/2000/svg">
<path d="M80 110C71.6667 110 64.5833 107.083 58.75 101.25C52.9167 95.4167 50 88.3333 50 80C50 71.6667 52.9167 64.5833 58.75 58.75C64.5833 52.9167 71.6667 50 80 50C88.3333 50 95.4167 52.9167 101.25 58.75C107.083 64.5833 110 71.6667 110 80C110 88.3333 107.083 95.4167 101.25 101.25C95.4167 107.083 88.3333 110 80 110ZM80 100C85.5 100 90.2083 98.0417 94.125 94.125C98.0417 90.2083 100 85.5 100 80C100 74.5 98.0417 69.7917 94.125 65.875C90.2083 61.9583 85.5 60 80 60C74.5 60 69.7917 61.9583 65.875 65.875C61.9583 69.7917 60 74.5 60 80C60 85.5 61.9583 90.2083 65.875 94.125C69.7917 98.0417 74.5 100 80 100ZM20 100C17.25 100 14.8958 99.0208 12.9375 97.0625C10.9792 95.1042 10 92.75 10 90V52C10 51.3333 10.0625 50.6667 10.1875 50C10.3125 49.3333 10.5 48.6667 10.75 48L20.75 25H20C18.5833 25 17.3958 24.5208 16.4375 23.5625C15.4792 22.6042 15 21.4167 15 20V15C15 13.5833 15.4792 12.3958 16.4375 11.4375C17.3958 10.4792 18.5833 10 20 10H55C56.4167 10 57.6042 10.4792 58.5625 11.4375C59.5208 12.3958 60 13.5833 60 15V20C60 21.4167 59.5208 22.6042 58.5625 23.5625C57.6042 24.5208 56.4167 25 55 25H54.25L62.5 44C60.9167 44.8333 59.4167 45.7083 58 46.625C56.5833 47.5417 55.25 48.5833 54 49.75L43.5 25H31.5L20 52V90H41.25C41.6667 91.75 42.2292 93.4792 42.9375 95.1875C43.6458 96.8958 44.5 98.5 45.5 100H20ZM80 45C76.5 45 73.5417 43.7917 71.125 41.375C68.7083 38.9583 67.5 36 67.5 32.5C67.5 29 68.7083 26.0417 71.125 23.625C73.5417 21.2083 76.5 20 80 20V45C80 41.5 81.2083 38.5417 83.625 36.125C86.0417 33.7083 89 32.5 92.5 32.5C96 32.5 98.9583 33.7083 101.375 36.125C103.792 38.5417 105 41.5 105 45H80Z" fill="#FF7A7A"/>
</svg>
