<svg width="120" height="120" viewBox="0 0 101 80" fill="none" xmlns="http://www.w3.org/2000/svg">
<path d="M11.7182 25H88.4682L84.2182 10H16.0932L11.7182 25ZM74.0932 35H26.2182L24.8432 45H75.3432L74.0932 35ZM10.0932 80L16.2182 35H5.0932C3.42654 35 2.11404 34.3333 1.1557 33C0.197369 31.6667 -0.0734641 30.2083 0.343203 28.625L7.4682 3.625C7.80154 2.54167 8.38487 1.66667 9.2182 1C10.0515 0.333333 11.0515 0 12.2182 0H87.9682C89.1349 0 90.1349 0.333333 90.9682 1C91.8015 1.66667 92.3849 2.54167 92.7182 3.625L99.8432 28.625C100.26 30.2083 99.989 31.6667 99.0307 33C98.0724 34.3333 96.7599 35 95.0932 35H84.0932L90.0932 80H80.0932L76.7182 55H23.4682L20.0932 80H10.0932Z" fill="#FF7A7A"/>
</svg>
