<svg width="120" height="120" viewBox="0 0 120 120" fill="none" xmlns="http://www.w3.org/2000/svg">
<path d="M30 36C26.7 36 23.875 34.825 21.525 32.475C19.175 30.125 18 27.3 18 24V12C18 8.7 19.175 5.875 21.525 3.525C23.875 1.175 26.7 0 30 0H90C93.3 0 96.125 1.175 98.475 3.525C100.825 5.875 102 8.7 102 12V24C102 27.3 100.825 30.125 98.475 32.475C96.125 34.825 93.3 36 90 36H30ZM30 24H90V12H30V24ZM12 120C8.7 120 5.875 118.825 3.525 116.475C1.175 114.125 0 111.3 0 108V102H120V108C120 111.3 118.825 114.125 116.475 116.475C114.125 118.825 111.3 120 108 120H12ZM0 96L20.85 49.05C21.85 46.85 23.35 45.125 25.35 43.875C27.35 42.625 29.5 42 31.8 42H88.2C90.5 42 92.65 42.625 94.65 43.875C96.65 45.125 98.15 46.85 99.15 49.05L120 96H0ZM39 84H45C45.8 84 46.5 83.7 47.1 83.1C47.7 82.5 48 81.8 48 81C48 80.2 47.7 79.5 47.1 78.9C46.5 78.3 45.8 78 45 78H39C38.2 78 37.5 78.3 36.9 78.9C36.3 79.5 36 80.2 36 81C36 81.8 36.3 82.5 36.9 83.1C37.5 83.7 38.2 84 39 84ZM39 72H45C45.8 72 46.5 71.7 47.1 71.1C47.7 70.5 48 69.8 48 69C48 68.2 47.7 67.5 47.1 66.9C46.5 66.3 45.8 66 45 66H39C38.2 66 37.5 66.3 36.9 66.9C36.3 67.5 36 68.2 36 69C36 69.8 36.3 70.5 36.9 71.1C37.5 71.7 38.2 72 39 72ZM39 60H45C45.8 60 46.5 59.7 47.1 59.1C47.7 58.5 48 57.8 48 57C48 56.2 47.7 55.5 47.1 54.9C46.5 54.3 45.8 54 45 54H39C38.2 54 37.5 54.3 36.9 54.9C36.3 55.5 36 56.2 36 57C36 57.8 36.3 58.5 36.9 59.1C37.5 59.7 38.2 60 39 60ZM57 84H63C63.8 84 64.5 83.7 65.1 83.1C65.7 82.5 66 81.8 66 81C66 80.2 65.7 79.5 65.1 78.9C64.5 78.3 63.8 78 63 78H57C56.2 78 55.5 78.3 54.9 78.9C54.3 79.5 54 80.2 54 81C54 81.8 54.3 82.5 54.9 83.1C55.5 83.7 56.2 84 57 84ZM57 72H63C63.8 72 64.5 71.7 65.1 71.1C65.7 70.5 66 69.8 66 69C66 68.2 65.7 67.5 65.1 66.9C64.5 66.3 63.8 66 63 66H57C56.2 66 55.5 66.3 54.9 66.9C54.3 67.5 54 68.2 54 69C54 69.8 54.3 70.5 54.9 71.1C55.5 71.7 56.2 72 57 72ZM57 60H63C63.8 60 64.5 59.7 65.1 59.1C65.7 58.5 66 57.8 66 57C66 56.2 65.7 55.5 65.1 54.9C64.5 54.3 63.8 54 63 54H57C56.2 54 55.5 54.3 54.9 54.9C54.3 55.5 54 56.2 54 57C54 57.8 54.3 58.5 54.9 59.1C55.5 59.7 56.2 60 57 60ZM75 84H81C81.8 84 82.5 83.7 83.1 83.1C83.7 82.5 84 81.8 84 81C84 80.2 83.7 79.5 83.1 78.9C82.5 78.3 81.8 78 81 78H75C74.2 78 73.5 78.3 72.9 78.9C72.3 79.5 72 80.2 72 81C72 81.8 72.3 82.5 72.9 83.1C73.5 83.7 74.2 84 75 84ZM75 72H81C81.8 72 82.5 71.7 83.1 71.1C83.7 70.5 84 69.8 84 69C84 68.2 83.7 67.5 83.1 66.9C82.5 66.3 81.8 66 81 66H75C74.2 66 73.5 66.3 72.9 66.9C72.3 67.5 72 68.2 72 69C72 69.8 72.3 70.5 72.9 71.1C73.5 71.7 74.2 72 75 72ZM75 60H81C81.8 60 82.5 59.7 83.1 59.1C83.7 58.5 84 57.8 84 57C84 56.2 83.7 55.5 83.1 54.9C82.5 54.3 81.8 54 81 54H75C74.2 54 73.5 54.3 72.9 54.9C72.3 55.5 72 56.2 72 57C72 57.8 72.3 58.5 72.9 59.1C73.5 59.7 74.2 60 75 60Z" fill="#FF7A7A"/>
</svg>
