<svg width="120" height="120" viewBox="0 0 120 120" fill="none" xmlns="http://www.w3.org/2000/svg">
<path d="M60 60C65.1918 60 70.2669 58.4605 74.5837 55.5761C78.9005 52.6917 82.265 48.592 84.2518 43.7954C86.2386 38.9989 86.7585 33.7209 85.7456 28.6289C84.7328 23.5369 82.2327 18.8596 78.5616 15.1884C74.8904 11.5173 70.2131 9.01725 65.1211 8.00438C60.0291 6.99152 54.7511 7.51136 49.9546 9.49816C45.158 11.485 41.0583 14.8495 38.1739 19.1663C35.2895 23.4831 33.75 28.5582 33.75 33.75C33.75 40.7119 36.5156 47.3887 41.4384 52.3115C46.3613 57.2344 53.0381 60 60 60ZM60 67.5C43.7297 67.5 11.25 77.55 11.25 97.5V112.5H108.75V97.5C108.75 77.55 76.2703 67.5 60 67.5Z" fill="#FC7F7F"/>
</svg>
